<svg width="4096" height="2160" viewBox="0 0 4096 2160" fill="none" xmlns="http://www.w3.org/2000/svg">
<path d="M1291.53 1588C1252.2 1588 1222.86 1578.67 1203.53 1560C1184.2 1541.33 1174.53 1506.33 1174.53 1455C1174.53 1437 1174.86 1420 1175.53 1404C1176.86 1387.33 1177.86 1371.33 1178.53 1356C1179.86 1340.67 1180.86 1325.33 1181.53 1310C1182.86 1294.67 1183.53 1278.67 1183.53 1262C1183.53 1252 1182.2 1242.67 1179.53 1234C1176.86 1224.67 1172.2 1216.33 1165.53 1209C1159.53 1201.67 1150.86 1195.67 1139.53 1191C1128.2 1186.33 1114.2 1184 1097.53 1184V1132C1114.2 1132 1128.2 1129.67 1139.53 1125C1150.86 1120.33 1159.53 1114.67 1165.53 1108C1172.2 1100.67 1176.86 1092.33 1179.53 1083C1182.2 1073.67 1183.53 1064.33 1183.53 1055C1183.53 1021 1181.86 989.333 1178.53 960C1175.86 930.667 1174.53 897.667 1174.53 861C1174.53 809.667 1184.2 774.667 1203.53 756C1222.86 737.333 1252.2 728 1291.53 728H1336.53V775H1309.53C1282.2 775 1263.86 782 1254.53 796C1245.86 810 1241.53 833.333 1241.53 866C1241.53 896.667 1242.53 926 1244.53 954C1246.53 982 1247.53 1013 1247.53 1047C1247.53 1079.67 1242.86 1104.67 1233.53 1122C1224.2 1138.67 1208.86 1150 1187.53 1156V1160C1208.86 1166 1224.2 1177.67 1233.53 1195C1242.86 1212.33 1247.53 1237 1247.53 1269C1247.53 1303 1246.53 1334 1244.53 1362C1242.53 1390 1241.53 1419.33 1241.53 1450C1241.53 1482.67 1245.86 1506 1254.53 1520C1263.86 1534 1282.2 1541 1309.53 1541H1336.53V1588H1291.53ZM2702.73 1588V1541H2728.73C2756.07 1541 2774.07 1534 2782.73 1520C2792.07 1506 2796.73 1482.67 2796.73 1450C2796.73 1419.33 2795.73 1390 2793.73 1362C2792.4 1334 2791.73 1303 2791.73 1269C2791.73 1237 2796.07 1212.33 2804.73 1195C2814.07 1177.67 2829.4 1166 2850.73 1160V1156C2829.4 1150 2814.07 1138.67 2804.73 1122C2796.07 1104.67 2791.73 1079.67 2791.73 1047C2791.73 1013 2792.4 982 2793.73 954C2795.73 926 2796.73 896.667 2796.73 866C2796.73 833.333 2792.07 810 2782.73 796C2774.07 782 2756.07 775 2728.73 775H2702.73V728H2746.73C2766.73 728 2784.07 730.333 2798.73 735C2813.4 739 2825.4 746 2834.73 756C2844.73 766 2852.07 779.667 2856.73 797C2861.4 813.667 2863.73 835 2863.73 861C2863.73 897.667 2862.07 930.667 2858.73 960C2856.07 989.333 2854.73 1021 2854.73 1055C2854.73 1074.33 2860.73 1092 2872.73 1108C2884.73 1123.33 2907.4 1131.33 2940.73 1132V1184C2924.07 1184 2910.07 1186.33 2898.73 1191C2888.07 1195.67 2879.4 1201.67 2872.73 1209C2866.07 1216.33 2861.4 1224.67 2858.73 1234C2856.07 1242.67 2854.73 1252 2854.73 1262C2854.73 1278.67 2855.07 1294.67 2855.73 1310C2857.07 1325.33 2858.07 1340.67 2858.73 1356C2860.07 1371.33 2861.07 1387.33 2861.73 1404C2863.07 1420 2863.73 1437 2863.73 1455C2863.73 1481 2861.4 1502.33 2856.73 1519C2852.07 1536.33 2844.73 1550 2834.73 1560C2825.4 1570 2813.4 1577 2798.73 1581C2784.07 1585.67 2766.73 1588 2746.73 1588H2702.73Z" fill="#319CFB"/>
<path d="M1804.27 1448C1762.93 1448 1724.93 1440.33 1690.27 1425C1655.6 1409.67 1625.27 1387.67 1599.27 1359C1573.93 1329.67 1553.93 1294 1539.27 1252C1525.27 1209.33 1518.27 1161.33 1518.27 1108C1518.27 1055.33 1525.6 1008 1540.27 966C1554.93 924 1575.27 888.333 1601.27 859C1627.27 829.667 1657.93 807.333 1693.27 792C1728.6 776 1767.27 768 1809.27 768C1849.27 768 1884.27 776.333 1914.27 793C1944.93 809 1969.93 827.667 1989.27 849L1944.27 903C1926.93 884.333 1907.27 869.333 1885.27 858C1863.27 846.667 1838.27 841 1810.27 841C1778.93 841 1750.6 847.333 1725.27 860C1699.93 872 1678.27 889.667 1660.27 913C1642.27 935.667 1628.27 963.333 1618.27 996C1608.93 1028.67 1604.27 1065.33 1604.27 1106C1604.27 1147.33 1608.93 1184.67 1618.27 1218C1628.27 1250.67 1641.93 1278.67 1659.27 1302C1676.6 1325.33 1697.6 1343.33 1722.27 1356C1747.6 1368.67 1775.93 1375 1807.27 1375C1839.27 1375 1867.27 1368.67 1891.27 1356C1915.27 1342.67 1937.93 1324.33 1959.27 1301L2005.27 1353C1979.27 1383 1949.93 1406.33 1917.27 1423C1884.6 1439.67 1846.93 1448 1804.27 1448ZM2309.55 1448C2263.55 1448 2220.89 1439.33 2181.55 1422C2142.22 1404.67 2108.22 1381 2079.55 1351L2129.55 1293C2152.89 1317.67 2180.22 1337.67 2211.55 1353C2243.55 1367.67 2276.55 1375 2310.55 1375C2353.89 1375 2387.55 1365.33 2411.55 1346C2435.55 1326 2447.55 1300 2447.55 1268C2447.55 1251.33 2444.55 1237.33 2438.55 1226C2433.22 1214 2425.55 1204 2415.55 1196C2406.22 1187.33 2394.89 1179.67 2381.55 1173C2368.22 1166.33 2353.89 1159.33 2338.55 1152L2244.55 1111C2229.22 1104.33 2213.55 1096.33 2197.55 1087C2181.55 1077.67 2167.22 1066.33 2154.55 1053C2141.89 1039.67 2131.55 1024 2123.55 1006C2115.55 987.333 2111.55 966 2111.55 942C2111.55 917.333 2116.55 894.333 2126.55 873C2137.22 851.667 2151.55 833.333 2169.55 818C2188.22 802 2209.89 789.667 2234.55 781C2259.89 772.333 2287.55 768 2317.55 768C2356.89 768 2393.22 775.667 2426.55 791C2459.89 805.667 2488.22 825 2511.55 849L2466.55 903C2446.55 883.667 2424.22 868.667 2399.55 858C2375.55 846.667 2348.22 841 2317.55 841C2280.89 841 2251.22 849.667 2228.55 867C2206.55 883.667 2195.55 907 2195.55 937C2195.55 953 2198.55 966.667 2204.55 978C2211.22 988.667 2219.89 998.333 2230.55 1007C2241.22 1015 2252.89 1022.33 2265.55 1029C2278.22 1035 2291.22 1040.67 2304.55 1046L2397.55 1086C2416.22 1094 2433.89 1103.33 2450.55 1114C2467.22 1124 2481.55 1136 2493.55 1150C2505.55 1163.33 2514.89 1179.33 2521.55 1198C2528.89 1216 2532.55 1237 2532.55 1261C2532.55 1287 2527.22 1311.33 2516.55 1334C2506.55 1356.67 2491.89 1376.67 2472.55 1394C2453.22 1410.67 2429.89 1424 2402.55 1434C2375.22 1443.33 2344.22 1448 2309.55 1448Z" fill="#F47717"/>
<path d="M1655.97 1587.5C1648.77 1587.5 1642.37 1586 1636.77 1583C1631.17 1580 1626.8 1575.77 1623.67 1570.3C1620.53 1564.77 1618.97 1558.37 1618.97 1551.1C1618.97 1543.83 1620.53 1537.43 1623.67 1531.9C1626.8 1526.37 1631.17 1522.1 1636.77 1519.1C1642.37 1516.1 1648.77 1514.6 1655.97 1514.6C1665.57 1514.6 1673.6 1517.03 1680.07 1521.9V1531.7C1674.27 1526.57 1666.53 1524 1656.87 1524C1651.47 1524 1646.67 1525.1 1642.47 1527.3C1638.33 1529.5 1635.1 1532.67 1632.77 1536.8C1630.43 1540.87 1629.27 1545.63 1629.27 1551.1C1629.27 1556.57 1630.43 1561.37 1632.77 1565.5C1635.17 1569.63 1638.43 1572.8 1642.57 1575C1646.77 1577.2 1651.53 1578.3 1656.87 1578.3C1661.8 1578.3 1666.2 1577.67 1670.07 1576.4C1674 1575.07 1677.63 1572.97 1680.97 1570.1V1580C1674.97 1585 1666.63 1587.5 1655.97 1587.5ZM1714.72 1587.5C1709.32 1587.5 1704.56 1586.5 1700.42 1584.5C1696.36 1582.43 1693.16 1579.5 1690.82 1575.7C1688.56 1571.83 1687.42 1567.3 1687.42 1562.1C1687.42 1556.97 1688.56 1552.47 1690.82 1548.6C1693.09 1544.73 1696.29 1541.77 1700.42 1539.7C1704.56 1537.57 1709.32 1536.5 1714.72 1536.5C1720.12 1536.5 1724.89 1537.57 1729.02 1539.7C1733.16 1541.77 1736.36 1544.73 1738.62 1548.6C1740.96 1552.47 1742.12 1556.97 1742.12 1562.1C1742.12 1567.3 1740.96 1571.83 1738.62 1575.7C1736.36 1579.5 1733.16 1582.43 1729.02 1584.5C1724.89 1586.5 1720.12 1587.5 1714.72 1587.5ZM1714.72 1579.5C1719.92 1579.5 1724.06 1577.9 1727.12 1574.7C1730.19 1571.5 1731.72 1567.3 1731.72 1562.1C1731.72 1556.7 1730.19 1552.43 1727.12 1549.3C1724.06 1546.17 1719.92 1544.6 1714.72 1544.6C1709.52 1544.6 1705.39 1546.17 1702.32 1549.3C1699.26 1552.43 1697.72 1556.7 1697.72 1562.1C1697.72 1567.3 1699.26 1571.5 1702.32 1574.7C1705.39 1577.9 1709.52 1579.5 1714.72 1579.5ZM1753.1 1538H1762.7V1544.9C1764.96 1542.1 1767.53 1540 1770.4 1538.6C1773.26 1537.2 1776.23 1536.5 1779.3 1536.5C1783.16 1536.5 1786.23 1537.17 1788.5 1538.5C1790.76 1539.77 1792.43 1541.73 1793.5 1544.4C1795.63 1541.8 1798.23 1539.83 1801.3 1538.5C1804.43 1537.17 1807.56 1536.5 1810.7 1536.5C1816.56 1536.5 1820.8 1538 1823.4 1541C1826 1543.93 1827.3 1548.3 1827.3 1554.1V1586H1817.5V1555.4C1817.5 1551.47 1816.76 1548.7 1815.3 1547.1C1813.83 1545.43 1811.33 1544.6 1807.8 1544.6C1802.73 1544.6 1798.6 1546.8 1795.4 1551.2C1795.53 1552.2 1795.6 1553.83 1795.6 1556.1V1586H1785.8V1555.4C1785.8 1551.47 1785.13 1548.7 1783.8 1547.1C1782.46 1545.43 1780.06 1544.6 1776.6 1544.6C1771.53 1544.6 1767 1547.47 1763 1553.2V1586H1753.1V1538ZM1839.81 1538H1849.61V1545.1C1854.55 1539.37 1861.21 1536.5 1869.61 1536.5C1874.41 1536.5 1878.71 1537.57 1882.51 1539.7C1886.38 1541.83 1889.38 1544.83 1891.51 1548.7C1893.71 1552.5 1894.81 1556.93 1894.81 1562C1894.81 1567 1893.71 1571.43 1891.51 1575.3C1889.38 1579.17 1886.41 1582.17 1882.61 1584.3C1878.81 1586.43 1874.48 1587.5 1869.61 1587.5C1865.61 1587.5 1861.88 1586.83 1858.41 1585.5C1854.95 1584.17 1852.11 1582.2 1849.91 1579.6V1607.9H1839.81V1538ZM1867.31 1579.5C1870.58 1579.5 1873.51 1578.8 1876.11 1577.4C1878.78 1575.93 1880.85 1573.87 1882.31 1571.2C1883.85 1568.53 1884.61 1565.47 1884.61 1562C1884.61 1558.53 1883.85 1555.5 1882.31 1552.9C1880.85 1550.23 1878.78 1548.2 1876.11 1546.8C1873.51 1545.33 1870.58 1544.6 1867.31 1544.6C1863.25 1544.6 1859.65 1545.67 1856.51 1547.8C1853.45 1549.93 1851.25 1552.87 1849.91 1556.6V1567.4C1851.05 1571.07 1853.21 1574 1856.41 1576.2C1859.61 1578.4 1863.25 1579.5 1867.31 1579.5ZM1922.39 1587.5C1915.92 1587.5 1911.02 1585.77 1907.69 1582.3C1904.42 1578.83 1902.79 1574.2 1902.79 1568.4V1538H1912.89V1568C1912.89 1575.67 1916.72 1579.5 1924.39 1579.5C1931.12 1579.5 1936.39 1576.47 1940.19 1570.4V1538H1950.29V1586H1940.49V1579.2C1938.22 1582.07 1935.52 1584.17 1932.39 1585.5C1929.32 1586.83 1925.99 1587.5 1922.39 1587.5ZM1981.75 1587.5C1976.89 1587.5 1973.12 1586.1 1970.45 1583.3C1967.85 1580.5 1966.55 1576.53 1966.55 1571.4V1545.8H1959.25V1538H1966.55V1523.6H1976.75V1538H1988.55V1545.8H1976.75V1570.7C1976.75 1573.9 1977.35 1576.17 1978.55 1577.5C1979.82 1578.83 1982.09 1579.5 1985.35 1579.5C1987.29 1579.5 1989.22 1579.07 1991.15 1578.2V1586.2C1988.62 1587.07 1985.49 1587.5 1981.75 1587.5ZM2027.05 1587.5C2018.19 1587.5 2011.22 1585.3 2006.15 1580.9C2001.15 1576.43 1998.65 1570.17 1998.65 1562.1C1998.65 1554.23 2000.89 1548 2005.35 1543.4C2009.89 1538.8 2016.32 1536.5 2024.65 1536.5C2030.19 1536.5 2034.89 1537.57 2038.75 1539.7C2042.62 1541.77 2045.52 1544.67 2047.45 1548.4C2049.45 1552.07 2050.45 1556.27 2050.45 1561V1566H2008.25C2008.59 1570.53 2010.49 1573.93 2013.95 1576.2C2017.49 1578.4 2022.25 1579.5 2028.25 1579.5C2031.32 1579.5 2034.42 1579.23 2037.55 1578.7C2040.69 1578.1 2043.45 1577.33 2045.85 1576.4V1584.5C2043.72 1585.37 2040.89 1586.07 2037.35 1586.6C2033.89 1587.2 2030.45 1587.5 2027.05 1587.5ZM2040.95 1558.9C2040.82 1554.37 2039.32 1550.87 2036.45 1548.4C2033.65 1545.87 2029.65 1544.6 2024.45 1544.6C2019.39 1544.6 2015.45 1545.9 2012.65 1548.5C2009.85 1551.1 2008.39 1554.57 2008.25 1558.9H2040.95ZM2061.49 1538H2071.29V1546.6C2073.29 1543.67 2076.09 1541.5 2079.69 1540.1C2083.36 1538.7 2087.59 1538 2092.39 1538V1545.9C2087.26 1545.9 2082.86 1546.73 2079.19 1548.4C2075.53 1550.07 2072.99 1552.7 2071.59 1556.3V1586H2061.49V1538ZM2194.86 1587.5C2190.86 1587.5 2186.89 1587.13 2182.96 1586.4C2179.09 1585.73 2175.93 1584.8 2173.46 1583.6V1574.4C2179.86 1577.4 2186.76 1578.9 2194.16 1578.9C2204.56 1578.9 2209.76 1575.4 2209.76 1568.4C2209.76 1566 2209.19 1564.07 2208.06 1562.6C2206.93 1561.13 2205.29 1559.87 2203.16 1558.8C2201.03 1557.67 2197.56 1556.13 2192.76 1554.2C2186.16 1551.53 2181.39 1548.6 2178.46 1545.4C2175.53 1542.2 2174.06 1538.17 2174.06 1533.3C2174.06 1529.63 2175.06 1526.4 2177.06 1523.6C2179.06 1520.73 2181.86 1518.53 2185.46 1517C2189.06 1515.4 2193.19 1514.6 2197.86 1514.6C2201.66 1514.6 2205.09 1514.9 2208.16 1515.5C2211.23 1516.1 2214.23 1517.07 2217.16 1518.4V1527.2C2211.36 1524.6 2205.49 1523.3 2199.56 1523.3C2194.76 1523.3 2191.09 1524.17 2188.56 1525.9C2186.03 1527.63 2184.76 1530.1 2184.76 1533.3C2184.76 1535.5 2185.29 1537.37 2186.36 1538.9C2187.49 1540.37 2189.13 1541.7 2191.26 1542.9C2193.46 1544.03 2196.69 1545.47 2200.96 1547.2C2205.69 1549.13 2209.43 1550.97 2212.16 1552.7C2214.89 1554.43 2216.96 1556.57 2218.36 1559.1C2219.83 1561.57 2220.56 1564.67 2220.56 1568.4C2220.56 1574.47 2218.39 1579.17 2214.06 1582.5C2209.73 1585.83 2203.33 1587.5 2194.86 1587.5ZM2255.35 1587.5C2249.95 1587.5 2245.18 1586.5 2241.05 1584.5C2236.98 1582.43 2233.78 1579.5 2231.45 1575.7C2229.18 1571.83 2228.05 1567.3 2228.05 1562.1C2228.05 1556.97 2229.18 1552.47 2231.45 1548.6C2233.72 1544.73 2236.92 1541.77 2241.05 1539.7C2245.18 1537.57 2249.95 1536.5 2255.35 1536.5C2260.75 1536.5 2265.52 1537.57 2269.65 1539.7C2273.78 1541.77 2276.98 1544.73 2279.25 1548.6C2281.58 1552.47 2282.75 1556.97 2282.75 1562.1C2282.75 1567.3 2281.58 1571.83 2279.25 1575.7C2276.98 1579.5 2273.78 1582.43 2269.65 1584.5C2265.52 1586.5 2260.75 1587.5 2255.35 1587.5ZM2255.35 1579.5C2260.55 1579.5 2264.68 1577.9 2267.75 1574.7C2270.82 1571.5 2272.35 1567.3 2272.35 1562.1C2272.35 1556.7 2270.82 1552.43 2267.75 1549.3C2264.68 1546.17 2260.55 1544.6 2255.35 1544.6C2250.15 1544.6 2246.02 1546.17 2242.95 1549.3C2239.88 1552.43 2238.35 1556.7 2238.35 1562.1C2238.35 1567.3 2239.88 1571.5 2242.95 1574.7C2246.02 1577.9 2250.15 1579.5 2255.35 1579.5ZM2317.56 1587.5C2312.22 1587.5 2307.49 1586.5 2303.36 1584.5C2299.22 1582.5 2295.99 1579.6 2293.66 1575.8C2291.39 1571.93 2290.26 1567.37 2290.26 1562.1C2290.26 1556.83 2291.39 1552.3 2293.66 1548.5C2295.99 1544.63 2299.22 1541.67 2303.36 1539.6C2307.56 1537.53 2312.36 1536.5 2317.76 1536.5C2325.09 1536.5 2330.96 1537.93 2335.36 1540.8V1549.1C2331.02 1546.1 2325.49 1544.6 2318.76 1544.6C2313.29 1544.6 2308.86 1546.1 2305.46 1549.1C2302.12 1552.03 2300.46 1556.37 2300.46 1562.1C2300.46 1567.83 2302.12 1572.17 2305.46 1575.1C2308.79 1578.03 2313.16 1579.5 2318.56 1579.5C2325.29 1579.5 2331.09 1577.9 2335.96 1574.7V1582.9C2333.62 1584.5 2330.96 1585.67 2327.96 1586.4C2325.02 1587.13 2321.56 1587.5 2317.56 1587.5ZM2352.84 1528.6C2351.18 1528.6 2349.78 1528.03 2348.64 1526.9C2347.51 1525.77 2346.94 1524.37 2346.94 1522.7C2346.94 1521.03 2347.51 1519.63 2348.64 1518.5C2349.78 1517.37 2351.18 1516.8 2352.84 1516.8C2354.58 1516.8 2356.01 1517.37 2357.14 1518.5C2358.34 1519.63 2358.94 1521.03 2358.94 1522.7C2358.94 1524.37 2358.34 1525.77 2357.14 1526.9C2356.01 1528.03 2354.58 1528.6 2352.84 1528.6ZM2347.74 1538H2358.04V1586H2347.74V1538ZM2398.34 1587.5C2389.48 1587.5 2382.51 1585.3 2377.44 1580.9C2372.44 1576.43 2369.94 1570.17 2369.94 1562.1C2369.94 1554.23 2372.18 1548 2376.64 1543.4C2381.18 1538.8 2387.61 1536.5 2395.94 1536.5C2401.48 1536.5 2406.18 1537.57 2410.04 1539.7C2413.91 1541.77 2416.81 1544.67 2418.74 1548.4C2420.74 1552.07 2421.74 1556.27 2421.74 1561V1566H2379.54C2379.88 1570.53 2381.78 1573.93 2385.24 1576.2C2388.78 1578.4 2393.54 1579.5 2399.54 1579.5C2402.61 1579.5 2405.71 1579.23 2408.84 1578.7C2411.98 1578.1 2414.74 1577.33 2417.14 1576.4V1584.5C2415.01 1585.37 2412.18 1586.07 2408.64 1586.6C2405.18 1587.2 2401.74 1587.5 2398.34 1587.5ZM2412.24 1558.9C2412.11 1554.37 2410.61 1550.87 2407.74 1548.4C2404.94 1545.87 2400.94 1544.6 2395.74 1544.6C2390.68 1544.6 2386.74 1545.9 2383.94 1548.5C2381.14 1551.1 2379.68 1554.57 2379.54 1558.9H2412.24ZM2451.28 1587.5C2446.42 1587.5 2442.65 1586.1 2439.98 1583.3C2437.38 1580.5 2436.08 1576.53 2436.08 1571.4V1545.8H2428.78V1538H2436.08V1523.6H2446.28V1538H2458.08V1545.8H2446.28V1570.7C2446.28 1573.9 2446.88 1576.17 2448.08 1577.5C2449.35 1578.83 2451.62 1579.5 2454.88 1579.5C2456.82 1579.5 2458.75 1579.07 2460.68 1578.2V1586.2C2458.15 1587.07 2455.02 1587.5 2451.28 1587.5ZM2476.38 1605.8C2472.78 1605.8 2469.78 1605.43 2467.38 1604.7V1596.8C2469.11 1597.47 2471.25 1597.8 2473.78 1597.8C2476.11 1597.8 2477.95 1597.2 2479.28 1596C2480.61 1594.87 2481.81 1593 2482.88 1590.4L2485.18 1584.8L2464.18 1538H2474.58L2490.58 1574.9L2505.48 1538H2515.88L2494.28 1591.4C2492.28 1596.4 2489.88 1600.03 2487.08 1602.3C2484.35 1604.63 2480.78 1605.8 2476.38 1605.8Z" fill="#319CFB"/>
</svg>
